{
	"asset":{
		"generator":"Khronos glTF Blender I/O v4.2.70",
		"version":"2.0"
	},
	"scene":0,
	"scenes":[
		{
			"name":"Scene",
			"nodes":[
				13
			]
		}
	],
	"nodes":[
		{
			"mesh":0,
			"name":"25_surf0000_1_0_0_root_root ground.001"
		},
		{
			"mesh":1,
			"name":"25_surf0000_1_0_0_root_root ground.002"
		},
		{
			"mesh":2,
			"name":"25_surf0000_1_0_0_root_root ground.004"
		},
		{
			"mesh":3,
			"name":"25_surf0000_1_0_0_root_root ground.005"
		},
		{
			"mesh":4,
			"name":"25_surf0000_1_0_0_root_root ground.006"
		},
		{
			"mesh":5,
			"name":"25_surf0000_1_0_0_root_root ground.007"
		},
		{
			"mesh":6,
			"name":"25_surf0000_1_0_0_root_root ground.008"
		},
		{
			"mesh":7,
			"name":"25_surf0000_1_0_0_root_root ground.009"
		},
		{
			"mesh":8,
			"name":"25_surf0000_1_0_0_root_root ground.010"
		},
		{
			"children":[
				0,
				1,
				2,
				3,
				4,
				5,
				6,
				7,
				8
			],
			"name":"25_surf0000_1_0_0_root_root ground.003",
			"scale":[
				16.712890625,
				16.712890625,
				16.712890625
			],
			"translation":[
				0.269059956073761,
				-0.09840987622737885,
				0.04026997089385986
			]
		},
		{
			"name":"Lamp.001"
		},
		{
			"children":[
				10
			],
			"name":"Lamp",
			"rotation":[
				0.16907529532909393,
				0.27217087149620056,
				0.7558793425559998,
				0.570949375629425
			],
			"scale":[
				0.999997615814209,
				0.9999959468841553,
				0.9999960660934448
			],
			"translation":[
				4.076250076293945,
				1.0054501295089722,
				5.903859615325928
			]
		},
		{
			"children":[
				9,
				11
			],
			"name":"Root"
		},
		{
			"children":[
				12
			],
			"name":"Sketchfab_model",
			"rotation":[
				-0.7572189569473267,
				0,
				0,
				0.6531611084938049
			],
			"translation":[
				-0.23032987117767334,
				-0.31729286909103394,
				1.7482179403305054
			]
		}
	],
	"materials":[
		{
			"doubleSided":true,
			"name":"Material.002",
			"pbrMetallicRoughness":{
				"baseColorFactor":[
					0.20898987352848053,
					0,
					0.3493257164955139,
					1
				],
				"metallicFactor":0,
				"roughnessFactor":0.6000000238418579
			}
		},
		{
			"doubleSided":true,
			"name":"Material.004",
			"pbrMetallicRoughness":{
				"baseColorFactor":[
					0.8000000715255737,
					0.0014503209386020899,
					0.046479564160108566,
					1
				],
				"metallicFactor":0,
				"roughnessFactor":0.6000000238418579
			}
		},
		{
			"doubleSided":true,
			"name":"Material.006",
			"pbrMetallicRoughness":{
				"baseColorFactor":[
					0.00429724995046854,
					0,
					0.8000000715255737,
					1
				],
				"metallicFactor":0,
				"roughnessFactor":0.6000000238418579
			}
		},
		{
			"doubleSided":true,
			"name":"Material.005",
			"pbrMetallicRoughness":{
				"baseColorFactor":[
					0.017695633694529533,
					0.8000000715255737,
					0,
					1
				],
				"metallicFactor":0,
				"roughnessFactor":0.6000000238418579
			}
		},
		{
			"doubleSided":true,
			"name":"Material.003",
			"pbrMetallicRoughness":{
				"baseColorFactor":[
					0.8000000715255737,
					0.6734776496887207,
					0,
					1
				],
				"metallicFactor":0,
				"roughnessFactor":0.6000000238418579
			}
		},
		{
			"doubleSided":true,
			"name":"Material.001",
			"pbrMetallicRoughness":{
				"baseColorFactor":[
					0.024808112531900406,
					0.024808112531900406,
					0.024808112531900406,
					1
				],
				"metallicFactor":0,
				"roughnessFactor":0.6000000238418579
			}
		},
		{
			"doubleSided":true,
			"name":"Material.007",
			"pbrMetallicRoughness":{
				"baseColorFactor":[
					0.2697356641292572,
					0.2697356641292572,
					0.2697356641292572,
					1
				],
				"metallicFactor":0,
				"roughnessFactor":0.6000000238418579
			}
		},
		{
			"doubleSided":true,
			"name":"Material.008",
			"pbrMetallicRoughness":{
				"baseColorFactor":[
					0.1262177973985672,
					0.1262177973985672,
					0.1262177973985672,
					1
				],
				"metallicFactor":0,
				"roughnessFactor":0.6000000238418579
			}
		},
		{
			"doubleSided":true,
			"name":"Material.009",
			"pbrMetallicRoughness":{
				"baseColorFactor":[
					0.2746071517467499,
					1,
					0,
					1
				],
				"metallicFactor":0,
				"roughnessFactor":0.6000000238418579
			}
		}
	],
	"meshes":[
		{
			"name":"25_surf0000_1_0_0_root_root ground.003",
			"primitives":[
				{
					"attributes":{
						"POSITION":0,
						"NORMAL":1,
						"TEXCOORD_0":2
					},
					"indices":3,
					"material":0
				}
			]
		},
		{
			"name":"25_surf0000_1_0_0_root_root ground.001",
			"primitives":[
				{
					"attributes":{
						"POSITION":4,
						"NORMAL":5,
						"TEXCOORD_0":6
					},
					"indices":7,
					"material":1
				}
			]
		},
		{
			"name":"25_surf0000_1_0_0_root_root ground.002",
			"primitives":[
				{
					"attributes":{
						"POSITION":8,
						"NORMAL":9,
						"TEXCOORD_0":10
					},
					"indices":7,
					"material":2
				}
			]
		},
		{
			"name":"25_surf0000_1_0_0_root_root ground.004",
			"primitives":[
				{
					"attributes":{
						"POSITION":11,
						"NORMAL":12,
						"TEXCOORD_0":13
					},
					"indices":14,
					"material":3
				}
			]
		},
		{
			"name":"25_surf0000_1_0_0_root_root ground.005",
			"primitives":[
				{
					"attributes":{
						"POSITION":15,
						"NORMAL":16,
						"TEXCOORD_0":17
					},
					"indices":18,
					"material":4
				}
			]
		},
		{
			"name":"25_surf0000_1_0_0_root_root ground.006",
			"primitives":[
				{
					"attributes":{
						"POSITION":19,
						"NORMAL":20,
						"TEXCOORD_0":21
					},
					"indices":22,
					"material":5
				}
			]
		},
		{
			"name":"25_surf0000_1_0_0_root_root ground.007",
			"primitives":[
				{
					"attributes":{
						"POSITION":23,
						"NORMAL":24,
						"TEXCOORD_0":25
					},
					"indices":26,
					"material":6
				}
			]
		},
		{
			"name":"25_surf0000_1_0_0_root_root ground.008",
			"primitives":[
				{
					"attributes":{
						"POSITION":27,
						"NORMAL":28,
						"TEXCOORD_0":29
					},
					"indices":30,
					"material":7
				}
			]
		},
		{
			"name":"25_surf0000_1_0_0_root_root ground.009",
			"primitives":[
				{
					"attributes":{
						"POSITION":31,
						"NORMAL":32,
						"TEXCOORD_0":33
					},
					"indices":34,
					"material":8
				}
			]
		}
	],
	"accessors":[
		{
			"bufferView":0,
			"componentType":5126,
			"count":494,
			"max":[
				0.08874999731779099,
				0.15623000264167786,
				0.07873000204563141
			],
			"min":[
				-0.08504000306129456,
				0.06859000027179718,
				0.030570000410079956
			],
			"type":"VEC3"
		},
		{
			"bufferView":1,
			"componentType":5126,
			"count":494,
			"type":"VEC3"
		},
		{
			"bufferView":2,
			"componentType":5126,
			"count":494,
			"type":"VEC2"
		},
		{
			"bufferView":3,
			"componentType":5123,
			"count":774,
			"type":"SCALAR"
		},
		{
			"bufferView":4,
			"componentType":5126,
			"count":56,
			"max":[
				0.08163999766111374,
				0.12116999924182892,
				0.0669500008225441
			],
			"min":[
				0.06967999786138535,
				0.10677000135183334,
				0.052889999002218246
			],
			"type":"VEC3"
		},
		{
			"bufferView":5,
			"componentType":5126,
			"count":56,
			"type":"VEC3"
		},
		{
			"bufferView":6,
			"componentType":5126,
			"count":56,
			"type":"VEC2"
		},
		{
			"bufferView":7,
			"componentType":5123,
			"count":72,
			"type":"SCALAR"
		},
		{
			"bufferView":8,
			"componentType":5126,
			"count":56,
			"max":[
				0.05987999960780144,
				0.12116999924182892,
				0.06714999675750732
			],
			"min":[
				0.047919999808073044,
				0.10672000050544739,
				0.052889999002218246
			],
			"type":"VEC3"
		},
		{
			"bufferView":9,
			"componentType":5126,
			"count":56,
			"type":"VEC3"
		},
		{
			"bufferView":10,
			"componentType":5126,
			"count":56,
			"type":"VEC2"
		},
		{
			"bufferView":11,
			"componentType":5126,
			"count":58,
			"max":[
				0.0711899995803833,
				0.11016999930143356,
				0.06452000141143799
			],
			"min":[
				0.059220001101493835,
				0.09570000320672989,
				0.05014999955892563
			],
			"type":"VEC3"
		},
		{
			"bufferView":12,
			"componentType":5126,
			"count":58,
			"type":"VEC3"
		},
		{
			"bufferView":13,
			"componentType":5126,
			"count":58,
			"type":"VEC2"
		},
		{
			"bufferView":14,
			"componentType":5123,
			"count":72,
			"type":"SCALAR"
		},
		{
			"bufferView":15,
			"componentType":5126,
			"count":56,
			"max":[
				0.0711899995803833,
				0.13128000497817993,
				0.06947000324726105
			],
			"min":[
				0.059220001101493835,
				0.11687999963760376,
				0.055410001426935196
			],
			"type":"VEC3"
		},
		{
			"bufferView":16,
			"componentType":5126,
			"count":56,
			"type":"VEC3"
		},
		{
			"bufferView":17,
			"componentType":5126,
			"count":56,
			"type":"VEC2"
		},
		{
			"bufferView":18,
			"componentType":5123,
			"count":72,
			"type":"SCALAR"
		},
		{
			"bufferView":19,
			"componentType":5126,
			"count":1662,
			"max":[
				0.10741999745368958,
				0.15262000262737274,
				0.07314000278711319
			],
			"min":[
				-0.10803999751806259,
				0.03471999987959862,
				0.002520000096410513
			],
			"type":"VEC3"
		},
		{
			"bufferView":20,
			"componentType":5126,
			"count":1662,
			"type":"VEC3"
		},
		{
			"bufferView":21,
			"componentType":5126,
			"count":1662,
			"type":"VEC2"
		},
		{
			"bufferView":22,
			"componentType":5123,
			"count":1662,
			"type":"SCALAR"
		},
		{
			"bufferView":23,
			"componentType":5126,
			"count":78,
			"max":[
				0.01843000017106533,
				0.10965999960899353,
				0.05922999978065491
			],
			"min":[
				0.010099999606609344,
				0.09939000010490417,
				0.04958000034093857
			],
			"type":"VEC3"
		},
		{
			"bufferView":24,
			"componentType":5126,
			"count":78,
			"type":"VEC3"
		},
		{
			"bufferView":25,
			"componentType":5126,
			"count":78,
			"type":"VEC2"
		},
		{
			"bufferView":26,
			"componentType":5123,
			"count":90,
			"type":"SCALAR"
		},
		{
			"bufferView":27,
			"componentType":5126,
			"count":76,
			"max":[
				-0.005450000055134296,
				0.10965999960899353,
				0.059130001813173294
			],
			"min":[
				-0.013779999688267708,
				0.09942000359296799,
				0.04958000034093857
			],
			"type":"VEC3"
		},
		{
			"bufferView":28,
			"componentType":5126,
			"count":76,
			"type":"VEC3"
		},
		{
			"bufferView":29,
			"componentType":5126,
			"count":76,
			"type":"VEC2"
		},
		{
			"bufferView":30,
			"componentType":5123,
			"count":90,
			"type":"SCALAR"
		},
		{
			"bufferView":31,
			"componentType":5126,
			"count":74,
			"max":[
				0.013319999910891056,
				0.13481999933719635,
				0.06244000047445297
			],
			"min":[
				-0.010119999758899212,
				0.10999000072479248,
				0.037950001657009125
			],
			"type":"VEC3"
		},
		{
			"bufferView":32,
			"componentType":5126,
			"count":74,
			"type":"VEC3"
		},
		{
			"bufferView":33,
			"componentType":5126,
			"count":74,
			"type":"VEC2"
		},
		{
			"bufferView":34,
			"componentType":5123,
			"count":90,
			"type":"SCALAR"
		}
	],
	"bufferViews":[
		{
			"buffer":0,
			"byteLength":5928,
			"byteOffset":0,
			"target":34962
		},
		{
			"buffer":0,
			"byteLength":5928,
			"byteOffset":5928,
			"target":34962
		},
		{
			"buffer":0,
			"byteLength":3952,
			"byteOffset":11856,
			"target":34962
		},
		{
			"buffer":0,
			"byteLength":1548,
			"byteOffset":15808,
			"target":34963
		},
		{
			"buffer":0,
			"byteLength":672,
			"byteOffset":17356,
			"target":34962
		},
		{
			"buffer":0,
			"byteLength":672,
			"byteOffset":18028,
			"target":34962
		},
		{
			"buffer":0,
			"byteLength":448,
			"byteOffset":18700,
			"target":34962
		},
		{
			"buffer":0,
			"byteLength":144,
			"byteOffset":19148,
			"target":34963
		},
		{
			"buffer":0,
			"byteLength":672,
			"byteOffset":19292,
			"target":34962
		},
		{
			"buffer":0,
			"byteLength":672,
			"byteOffset":19964,
			"target":34962
		},
		{
			"buffer":0,
			"byteLength":448,
			"byteOffset":20636,
			"target":34962
		},
		{
			"buffer":0,
			"byteLength":696,
			"byteOffset":21084,
			"target":34962
		},
		{
			"buffer":0,
			"byteLength":696,
			"byteOffset":21780,
			"target":34962
		},
		{
			"buffer":0,
			"byteLength":464,
			"byteOffset":22476,
			"target":34962
		},
		{
			"buffer":0,
			"byteLength":144,
			"byteOffset":22940,
			"target":34963
		},
		{
			"buffer":0,
			"byteLength":672,
			"byteOffset":23084,
			"target":34962
		},
		{
			"buffer":0,
			"byteLength":672,
			"byteOffset":23756,
			"target":34962
		},
		{
			"buffer":0,
			"byteLength":448,
			"byteOffset":24428,
			"target":34962
		},
		{
			"buffer":0,
			"byteLength":144,
			"byteOffset":24876,
			"target":34963
		},
		{
			"buffer":0,
			"byteLength":19944,
			"byteOffset":25020,
			"target":34962
		},
		{
			"buffer":0,
			"byteLength":19944,
			"byteOffset":44964,
			"target":34962
		},
		{
			"buffer":0,
			"byteLength":13296,
			"byteOffset":64908,
			"target":34962
		},
		{
			"buffer":0,
			"byteLength":3324,
			"byteOffset":78204,
			"target":34963
		},
		{
			"buffer":0,
			"byteLength":936,
			"byteOffset":81528,
			"target":34962
		},
		{
			"buffer":0,
			"byteLength":936,
			"byteOffset":82464,
			"target":34962
		},
		{
			"buffer":0,
			"byteLength":624,
			"byteOffset":83400,
			"target":34962
		},
		{
			"buffer":0,
			"byteLength":180,
			"byteOffset":84024,
			"target":34963
		},
		{
			"buffer":0,
			"byteLength":912,
			"byteOffset":84204,
			"target":34962
		},
		{
			"buffer":0,
			"byteLength":912,
			"byteOffset":85116,
			"target":34962
		},
		{
			"buffer":0,
			"byteLength":608,
			"byteOffset":86028,
			"target":34962
		},
		{
			"buffer":0,
			"byteLength":180,
			"byteOffset":86636,
			"target":34963
		},
		{
			"buffer":0,
			"byteLength":888,
			"byteOffset":86816,
			"target":34962
		},
		{
			"buffer":0,
			"byteLength":888,
			"byteOffset":87704,
			"target":34962
		},
		{
			"buffer":0,
			"byteLength":592,
			"byteOffset":88592,
			"target":34962
		},
		{
			"buffer":0,
			"byteLength":180,
			"byteOffset":89184,
			"target":34963
		}
	],
	"buffers":[
		{
			"byteLength":89364,
			"uri":"gaysexfinal.bin"
		}
	]
}
