{
  "accessors": [
    {
      "bufferView": 2,
      "componentType": 5126,
      "count": 444,
      "max": [
        0.08874999731779099,
        0.15623000264167786,
        0.07873000204563141
      ],
      "min": [
        -0.08504000306129456,
        0.06859000027179718,
        0.030570000410079956
      ],
      "type": "VEC3"
    },
    {
      "bufferView": 2,
      "byteOffset": 5328,
      "componentType": 5126,
      "count": 444,
      "max": [
        0.9994850158691406,
        0.9979247450828552,
        1.0
      ],
      "min": [
        -0.9995222687721252,
        -0.986732006072998,
        -1.0
      ],
      "type": "VEC3"
    },
    {
      "bufferView": 1,
      "componentType": 5126,
      "count": 444,
      "max": [
        0.6071500182151794,
        0.9927099943161011
      ],
      "min": [
        0.0,
        0.0
      ],
      "type": "VEC2"
    },
    {
      "bufferView": 0,
      "componentType": 5125,
      "count": 774,
      "type": "SCALAR"
    },
    {
      "bufferView": 2,
      "byteOffset": 10656,
      "componentType": 5126,
      "count": 56,
      "max": [
        0.08163999766111374,
        0.12116999924182892,
        0.0669500008225441
      ],
      "min": [
        0.06967999786138535,
        0.10677000135183334,
        0.052889999002218246
      ],
      "type": "VEC3"
    },
    {
      "bufferView": 2,
      "byteOffset": 11328,
      "componentType": 5126,
      "count": 56,
      "max": [
        1.0,
        0.9702266454696655,
        0.9999719262123108
      ],
      "min": [
        -1.0,
        -0.9702266454696655,
        -0.24219916760921478
      ],
      "type": "VEC3"
    },
    {
      "bufferView": 1,
      "byteOffset": 3552,
      "componentType": 5126,
      "count": 56,
      "max": [
        0.0,
        0.0
      ],
      "min": [
        0.0,
        0.0
      ],
      "type": "VEC2"
    },
    {
      "bufferView": 0,
      "byteOffset": 3096,
      "componentType": 5125,
      "count": 72,
      "type": "SCALAR"
    },
    {
      "bufferView": 2,
      "byteOffset": 12000,
      "componentType": 5126,
      "count": 56,
      "max": [
        0.05987999960780144,
        0.12116999924182892,
        0.06714999675750732
      ],
      "min": [
        0.047919999808073044,
        0.10672000050544739,
        0.052889999002218246
      ],
      "type": "VEC3"
    },
    {
      "bufferView": 2,
      "byteOffset": 12672,
      "componentType": 5126,
      "count": 56,
      "max": [
        1.0,
        0.9702266454696655,
        0.9992235898971558
      ],
      "min": [
        -1.0,
        -0.9702266454696655,
        -0.24219916760921478
      ],
      "type": "VEC3"
    },
    {
      "bufferView": 1,
      "byteOffset": 4000,
      "componentType": 5126,
      "count": 56,
      "max": [
        0.0,
        0.0
      ],
      "min": [
        0.0,
        0.0
      ],
      "type": "VEC2"
    },
    {
      "bufferView": 0,
      "byteOffset": 3384,
      "componentType": 5125,
      "count": 72,
      "type": "SCALAR"
    },
    {
      "bufferView": 2,
      "byteOffset": 13344,
      "componentType": 5126,
      "count": 56,
      "max": [
        0.0711899995803833,
        0.11016999930143356,
        0.06452000141143799
      ],
      "min": [
        0.059220001101493835,
        0.09570000320672989,
        0.05014999955892563
      ],
      "type": "VEC3"
    },
    {
      "bufferView": 2,
      "byteOffset": 14016,
      "componentType": 5126,
      "count": 56,
      "max": [
        1.0,
        0.9702266454696655,
        0.9965019226074219
      ],
      "min": [
        -1.0,
        -0.9702266454696655,
        -0.24219916760921478
      ],
      "type": "VEC3"
    },
    {
      "bufferView": 1,
      "byteOffset": 4448,
      "componentType": 5126,
      "count": 56,
      "max": [
        0.0,
        0.0
      ],
      "min": [
        0.0,
        0.0
      ],
      "type": "VEC2"
    },
    {
      "bufferView": 0,
      "byteOffset": 3672,
      "componentType": 5125,
      "count": 72,
      "type": "SCALAR"
    },
    {
      "bufferView": 2,
      "byteOffset": 14688,
      "componentType": 5126,
      "count": 56,
      "max": [
        0.0711899995803833,
        0.13128000497817993,
        0.06947000324726105
      ],
      "min": [
        0.059220001101493835,
        0.11687999963760376,
        0.055410001426935196
      ],
      "type": "VEC3"
    },
    {
      "bufferView": 2,
      "byteOffset": 15360,
      "componentType": 5126,
      "count": 56,
      "max": [
        1.0,
        0.9702266454696655,
        0.9999833106994629
      ],
      "min": [
        -1.0,
        -0.9702266454696655,
        -0.24219916760921478
      ],
      "type": "VEC3"
    },
    {
      "bufferView": 1,
      "byteOffset": 4896,
      "componentType": 5126,
      "count": 56,
      "max": [
        0.0,
        0.0
      ],
      "min": [
        0.0,
        0.0
      ],
      "type": "VEC2"
    },
    {
      "bufferView": 0,
      "byteOffset": 3960,
      "componentType": 5125,
      "count": 72,
      "type": "SCALAR"
    },
    {
      "bufferView": 2,
      "byteOffset": 16032,
      "componentType": 5126,
      "count": 1662,
      "max": [
        0.10741999745368958,
        0.15262000262737274,
        0.07314000278711319
      ],
      "min": [
        -0.10803999751806259,
        0.03471999987959862,
        0.002520000096410513
      ],
      "type": "VEC3"
    },
    {
      "bufferView": 2,
      "byteOffset": 35976,
      "componentType": 5126,
      "count": 1662,
      "max": [
        0.9994959235191345,
        0.9986711740493774,
        0.9973435997962952
      ],
      "min": [
        -0.9965027570724487,
        -0.9950883388519287,
        -0.9983713030815125
      ],
      "type": "VEC3"
    },
    {
      "bufferView": 1,
      "byteOffset": 5344,
      "componentType": 5126,
      "count": 1662,
      "max": [
        0.9965199828147888,
        0.9935799837112427
      ],
      "min": [
        0.0034600000362843275,
        0.008949999697506428
      ],
      "type": "VEC2"
    },
    {
      "bufferView": 0,
      "byteOffset": 4248,
      "componentType": 5125,
      "count": 1662,
      "type": "SCALAR"
    },
    {
      "bufferView": 2,
      "byteOffset": 55920,
      "componentType": 5126,
      "count": 64,
      "max": [
        0.01843000017106533,
        0.10965999960899353,
        0.05922999978065491
      ],
      "min": [
        0.010099999606609344,
        0.09939000010490417,
        0.04958000034093857
      ],
      "type": "VEC3"
    },
    {
      "bufferView": 2,
      "byteOffset": 56688,
      "componentType": 5126,
      "count": 64,
      "max": [
        0.9238784313201904,
        0.8730204105377197,
        0.9906508326530457
      ],
      "min": [
        -0.9238784313201904,
        -0.8730204105377197,
        -0.9449484348297119
      ],
      "type": "VEC3"
    },
    {
      "bufferView": 1,
      "byteOffset": 18640,
      "componentType": 5126,
      "count": 64,
      "max": [
        0.0,
        0.0
      ],
      "min": [
        0.0,
        0.0
      ],
      "type": "VEC2"
    },
    {
      "bufferView": 0,
      "byteOffset": 10896,
      "componentType": 5125,
      "count": 90,
      "type": "SCALAR"
    },
    {
      "bufferView": 2,
      "byteOffset": 57456,
      "componentType": 5126,
      "count": 64,
      "max": [
        -0.005450000055134296,
        0.10965999960899353,
        0.059130001813173294
      ],
      "min": [
        -0.013779999688267708,
        0.09942000359296799,
        0.04958000034093857
      ],
      "type": "VEC3"
    },
    {
      "bufferView": 2,
      "byteOffset": 58224,
      "componentType": 5126,
      "count": 64,
      "max": [
        0.9238784313201904,
        0.8730204105377197,
        0.9855701327323914
      ],
      "min": [
        -0.9238784313201904,
        -0.8730204105377197,
        -0.9449484348297119
      ],
      "type": "VEC3"
    },
    {
      "bufferView": 1,
      "byteOffset": 19152,
      "componentType": 5126,
      "count": 64,
      "max": [
        0.0,
        0.0
      ],
      "min": [
        0.0,
        0.0
      ],
      "type": "VEC2"
    },
    {
      "bufferView": 0,
      "byteOffset": 11256,
      "componentType": 5125,
      "count": 90,
      "type": "SCALAR"
    },
    {
      "bufferView": 2,
      "byteOffset": 58992,
      "componentType": 5126,
      "count": 64,
      "max": [
        0.013319999910891056,
        0.13481999933719635,
        0.06244000047445297
      ],
      "min": [
        -0.010119999758899212,
        0.10999000072479248,
        0.037950001657009125
      ],
      "type": "VEC3"
    },
    {
      "bufferView": 2,
      "byteOffset": 59760,
      "componentType": 5126,
      "count": 64,
      "max": [
        0.923878014087677,
        0.921809732913971,
        0.9889388084411621
      ],
      "min": [
        -0.923878014087677,
        -0.921809732913971,
        -0.9977583289146423
      ],
      "type": "VEC3"
    },
    {
      "bufferView": 1,
      "byteOffset": 19664,
      "componentType": 5126,
      "count": 64,
      "max": [
        0.0,
        0.0
      ],
      "min": [
        0.0,
        0.0
      ],
      "type": "VEC2"
    },
    {
      "bufferView": 0,
      "byteOffset": 11616,
      "componentType": 5125,
      "count": 90,
      "type": "SCALAR"
    }
  ],
  "asset": {
    "extras": {
      "author": "VioletBoom (https://sketchfab.com/violetboom)",
      "license": "CC-BY-4.0 (http://creativecommons.org/licenses/by/4.0/)",
      "source": "https://sketchfab.com/3d-models/xbox-controller-lp-1658ffe50e154dd8b830412a6f845b37",
      "title": "Xbox Controller LP"
    },
    "generator": "Sketchfab-12.65.0",
    "version": "2.0"
  },
  "bufferViews": [
    {
      "buffer": 0,
      "byteLength": 11976,
      "name": "floatBufferViews",
      "target": 34963
    },
    {
      "buffer": 0,
      "byteLength": 20176,
      "byteOffset": 11976,
      "byteStride": 8,
      "name": "floatBufferViews",
      "target": 34962
    },
    {
      "buffer": 0,
      "byteLength": 60528,
      "byteOffset": 32152,
      "byteStride": 12,
      "name": "floatBufferViews",
      "target": 34962
    }
  ],
  "buffers": [
    {
      "byteLength": 92680,
      "uri": "scene.bin"
    }
  ],
  "materials": [
    {
      "doubleSided": true,
      "name": "Material.002",
      "pbrMetallicRoughness": {
        "baseColorFactor": [
          0.2089898735,
          0.0,
          0.3493257165,
          1.0
        ],
        "metallicFactor": 0.0,
        "roughnessFactor": 0.6
      }
    },
    {
      "doubleSided": true,
      "name": "Material.004",
      "pbrMetallicRoughness": {
        "baseColorFactor": [
          0.8000000715,
          0.0014503209,
          0.0464795642,
          1.0
        ],
        "metallicFactor": 0.0,
        "roughnessFactor": 0.6
      }
    },
    {
      "doubleSided": true,
      "name": "Material.006",
      "pbrMetallicRoughness": {
        "baseColorFactor": [
          0.00429725,
          0.0,
          0.8000000715,
          1.0
        ],
        "metallicFactor": 0.0,
        "roughnessFactor": 0.6
      }
    },
    {
      "doubleSided": true,
      "name": "Material.005",
      "pbrMetallicRoughness": {
        "baseColorFactor": [
          0.0176956337,
          0.8000000715,
          0.0,
          1.0
        ],
        "metallicFactor": 0.0,
        "roughnessFactor": 0.6
      }
    },
    {
      "doubleSided": true,
      "name": "Material.003",
      "pbrMetallicRoughness": {
        "baseColorFactor": [
          0.8000000715,
          0.6734776497,
          0.0,
          1.0
        ],
        "metallicFactor": 0.0,
        "roughnessFactor": 0.6
      }
    },
    {
      "doubleSided": true,
      "name": "Material.001",
      "pbrMetallicRoughness": {
        "baseColorFactor": [
          0.0248081125,
          0.0248081125,
          0.0248081125,
          1.0
        ],
        "metallicFactor": 0.0,
        "roughnessFactor": 0.6
      }
    },
    {
      "doubleSided": true,
      "name": "Material.007",
      "pbrMetallicRoughness": {
        "baseColorFactor": [
          0.2697356641,
          0.2697356641,
          0.2697356641,
          1.0
        ],
        "metallicFactor": 0.0,
        "roughnessFactor": 0.6
      }
    },
    {
      "doubleSided": true,
      "name": "Material.008",
      "pbrMetallicRoughness": {
        "baseColorFactor": [
          0.1262177974,
          0.1262177974,
          0.1262177974,
          1.0
        ],
        "metallicFactor": 0.0,
        "roughnessFactor": 0.6
      }
    },
    {
      "doubleSided": true,
      "name": "Material.009",
      "pbrMetallicRoughness": {
        "baseColorFactor": [
          0.2746071517,
          1.0,
          0.0,
          1.0
        ],
        "metallicFactor": 0.0,
        "roughnessFactor": 0.6
      }
    }
  ],
  "meshes": [
    {
      "name": "25_surf0000_1_0_0_root_root ground.003",
      "primitives": [
        {
          "attributes": {
            "NORMAL": 1,
            "POSITION": 0,
            "TEXCOORD_0": 2
          },
          "indices": 3,
          "material": 0,
          "mode": 4
        }
      ]
    },
    {
      "name": "25_surf0000_1_0_0_root_root ground.003",
      "primitives": [
        {
          "attributes": {
            "NORMAL": 5,
            "POSITION": 4,
            "TEXCOORD_0": 6
          },
          "indices": 7,
          "material": 1,
          "mode": 4
        }
      ]
    },
    {
      "name": "25_surf0000_1_0_0_root_root ground.003",
      "primitives": [
        {
          "attributes": {
            "NORMAL": 9,
            "POSITION": 8,
            "TEXCOORD_0": 10
          },
          "indices": 11,
          "material": 2,
          "mode": 4
        }
      ]
    },
    {
      "name": "25_surf0000_1_0_0_root_root ground.003",
      "primitives": [
        {
          "attributes": {
            "NORMAL": 13,
            "POSITION": 12,
            "TEXCOORD_0": 14
          },
          "indices": 15,
          "material": 3,
          "mode": 4
        }
      ]
    },
    {
      "name": "25_surf0000_1_0_0_root_root ground.003",
      "primitives": [
        {
          "attributes": {
            "NORMAL": 17,
            "POSITION": 16,
            "TEXCOORD_0": 18
          },
          "indices": 19,
          "material": 4,
          "mode": 4
        }
      ]
    },
    {
      "name": "25_surf0000_1_0_0_root_root ground.003",
      "primitives": [
        {
          "attributes": {
            "NORMAL": 21,
            "POSITION": 20,
            "TEXCOORD_0": 22
          },
          "indices": 23,
          "material": 5,
          "mode": 4
        }
      ]
    },
    {
      "name": "25_surf0000_1_0_0_root_root ground.003",
      "primitives": [
        {
          "attributes": {
            "NORMAL": 25,
            "POSITION": 24,
            "TEXCOORD_0": 26
          },
          "indices": 27,
          "material": 6,
          "mode": 4
        }
      ]
    },
    {
      "name": "25_surf0000_1_0_0_root_root ground.003",
      "primitives": [
        {
          "attributes": {
            "NORMAL": 29,
            "POSITION": 28,
            "TEXCOORD_0": 30
          },
          "indices": 31,
          "material": 7,
          "mode": 4
        }
      ]
    },
    {
      "name": "25_surf0000_1_0_0_root_root ground.003",
      "primitives": [
        {
          "attributes": {
            "NORMAL": 33,
            "POSITION": 32,
            "TEXCOORD_0": 34
          },
          "indices": 35,
          "material": 8,
          "mode": 4
        }
      ]
    }
  ],
  "nodes": [
    {
      "children": [
        1
      ],
      "matrix": [
        1.0,
        0.0,
        0.0,
        0.0,
        0.0,
        2.220446049250313e-16,
        -1.0,
        0.0,
        0.0,
        1.0,
        2.220446049250313e-16,
        0.0,
        0.0,
        0.0,
        0.0,
        1.0
      ],
      "name": "Sketchfab_model"
    },
    {
      "children": [
        2,
        4
      ],
      "name": "Root"
    },
    {
      "children": [
        3
      ],
      "matrix": [
        -0.29086000000000006,
        0.9551700000000001,
        -0.05519000000000001,
        0.0,
        -0.7711,
        -0.19988000000000003,
        0.6045200000000001,
        0.0,
        0.5663900000000001,
        0.21839000000000003,
        0.7946700000000001,
        0.0,
        4.076250000000001,
        1.00545,
        5.903860000000001,
        1.0
      ],
      "name": "Lamp"
    },
    {
      "name": "Lamp"
    },
    {
      "children": [
        5,
        6,
        7,
        8,
        9,
        10,
        11,
        12,
        13
      ],
      "matrix": [
        16.71289,
        0.0,
        0.0,
        0.0,
        0.0,
        16.71289,
        0.0,
        0.0,
        0.0,
        0.0,
        16.71289,
        0.0,
        0.26906,
        -0.09841000000000003,
        0.04027000000000001,
        1.0
      ],
      "name": "25_surf0000_1_0_0_root_root ground.003"
    },
    {
      "mesh": 0,
      "name": "25_surf0000_1_0_0_root_root ground.003"
    },
    {
      "mesh": 1,
      "name": "25_surf0000_1_0_0_root_root ground.003"
    },
    {
      "mesh": 2,
      "name": "25_surf0000_1_0_0_root_root ground.003"
    },
    {
      "mesh": 3,
      "name": "25_surf0000_1_0_0_root_root ground.003"
    },
    {
      "mesh": 4,
      "name": "25_surf0000_1_0_0_root_root ground.003"
    },
    {
      "mesh": 5,
      "name": "25_surf0000_1_0_0_root_root ground.003"
    },
    {
      "mesh": 6,
      "name": "25_surf0000_1_0_0_root_root ground.003"
    },
    {
      "mesh": 7,
      "name": "25_surf0000_1_0_0_root_root ground.003"
    },
    {
      "mesh": 8,
      "name": "25_surf0000_1_0_0_root_root ground.003"
    }
  ],
  "scene": 0,
  "scenes": [
    {
      "name": "Sketchfab_Scene",
      "nodes": [
        0
      ]
    }
  ]
}
